<?xml version="1.0" encoding="UTF-8"?>
<svg version="1.1" xmlns="http://www.w3.org/2000/svg" width="600" height="600">
<path d="M0 0 C198 0 396 0 600 0 C600 198 600 396 600 600 C402 600 204 600 0 600 C0 402 0 204 0 0 Z " fill="#FEFEFE" transform="translate(0,0)"/>
<path d="M0 0 C26.73 0 53.46 0 81 0 C81 63.03 81 126.06 81 191 C104.76 191 128.52 191 153 191 C153 127.97 153 64.94 153 0 C179.73 0 206.46 0 234 0 C234 152.79 234 305.58 234 463 C207.6 463 181.2 463 154 463 C154 399.97 154 336.94 154 272 C129.91 272 105.82 272 81 272 C81 335.03 81 398.06 81 463 C54.27 463 27.54 463 0 463 C0 310.21 0 157.42 0 0 Z " fill="#660712" transform="translate(336,68)"/>
<path d="M0 0 C64.35 0 128.7 0 195 0 C195 26.4 195 52.8 195 80 C157.05 80 119.1 80 80 80 C80 116.96 80 153.92 80 192 C105.41 192 130.82 192 157 192 C157 218.4 157 244.8 157 272 C131.59 272 106.18 272 80 272 C80 308.63 80 345.26 80 383 C117.95 383 155.9 383 195 383 C195 409.4 195 435.8 195 463 C130.65 463 66.3 463 0 463 C0 310.21 0 157.42 0 0 Z " fill="#660611" transform="translate(30,68)"/>
<path d="M0 0 C26.73 0 53.46 0 81 0 C81 26.73 81 53.46 81 81 C54.27 81 27.54 81 0 81 C0 54.27 0 27.54 0 0 Z " fill="#680A14" transform="translate(221,259)"/>
</svg>
