<svg style="flex:none;line-height:1" viewBox="0 0 512 512" xmlns="http://www.w3.org/2000/svg">
  <path d="M0 0 C2.80387058 1.27886769 4.85248535 2.60381048 7.02459717 4.78408813 C7.87846764 5.63383461 7.87846764 5.63383461 8.74958801 6.50074768 C9.36170639 7.12005661 9.97382477 7.73936554 10.60449219 8.37744141 C11.58560219 9.35811333 11.58560219 9.35811333 12.58653259 10.3585968 C14.74475514 12.51821138 16.89580936 14.6848212 19.046875 16.8515625 C20.54287809 18.35129616 22.03932369 19.85058853 23.53619385 21.34945679 C27.47300225 25.29389812 31.40376734 29.24430894 35.33331299 33.19598389 C39.34488498 37.22802153 43.36213094 41.25439714 47.37890625 45.28125 C55.25817445 53.18196213 63.13107125 61.0889909 71 69 C74.41059403 67.39464713 76.61792484 65.59481099 79.25 62.875 C79.95640625 62.15054688 80.6628125 61.42609375 81.390625 60.6796875 C81.92171875 60.12539062 82.4528125 59.57109375 83 59 C86.03864948 60.35955257 88.13487937 61.88690128 90.48016357 64.23965454 C91.1503804 64.90712204 91.82059723 65.57458954 92.51112366 66.26228333 C93.59761452 67.35956001 93.59761452 67.35956001 94.70605469 68.47900391 C95.47717087 69.24982803 96.24828705 70.02065216 97.04277039 70.81483459 C99.59057438 73.364032 102.13122091 75.92024072 104.671875 78.4765625 C106.43692138 80.24533896 108.20240982 82.01367439 109.96832275 83.78158569 C114.1403491 87.96046828 118.30789848 92.14378094 122.47330117 96.32926309 C127.68207257 101.56259635 132.89776266 106.78901743 138.11328125 112.015625 C147.41441813 121.33821267 156.70938262 130.66692946 166 140 C164.72910153 142.78605292 163.42836319 144.81590808 161.24714661 146.9597168 C160.68761795 147.51476898 160.12808929 148.06982117 159.55160522 148.64169312 C158.94007599 149.23817657 158.32854675 149.83466003 157.69848633 150.44921875 C157.05285233 151.08711334 156.40721832 151.72500793 155.74201965 152.38223267 C154.34179734 153.76481821 152.93938396 155.14518746 151.53504372 156.52359009 C149.3156668 158.70357398 147.10387093 160.89098074 144.89421082 163.08081055 C138.6117116 169.30522599 132.31963539 175.51982579 126.01293945 181.71972656 C122.1551092 185.51328082 118.3094292 189.31879387 114.47125816 193.13223267 C113.00418395 194.58500774 111.53244416 196.0330865 110.05607033 197.47640991 C107.99702262 199.48997877 105.95370358 201.51831735 103.91333008 203.55078125 C103.29572815 204.14726471 102.67812622 204.74374817 102.04180908 205.35830688 C100.17355394 207.18063019 100.17355394 207.18063019 98 210 C98.44216107 213.86411168 100.11547575 215.31753554 103.0625 217.75 C103.79597656 218.36359375 104.52945313 218.9771875 105.28515625 219.609375 C105.85105469 220.06828125 106.41695312 220.5271875 107 221 C106.41568343 224.43664684 105.2964467 226.07583709 102.84263611 228.51812744 C101.83087563 229.53607391 101.83087563 229.53607391 100.79867554 230.57458496 C100.05421173 231.30826294 99.30974792 232.04194092 98.54272461 232.79785156 C97.76229294 233.57872131 96.98186127 234.35959106 96.17778015 235.16412354 C93.59301443 237.74679705 90.99778008 240.31867867 88.40234375 242.890625 C86.60950077 244.6778736 84.81731841 246.46578512 83.02577209 248.2543335 C78.78847018 252.48134618 74.5445568 256.70160835 70.29737335 260.91868377 C65.46202585 265.7204955 60.63519736 270.53083181 55.80906665 275.34190416 C45.88216322 285.2374526 35.94460591 295.12224424 26 305 C21.2963031 301.07646657 16.85907722 296.98993075 12.56152344 292.62744141 C11.96059875 292.02184387 11.35967407 291.41624634 10.74053955 290.79229736 C9.44909184 289.49042676 8.15875425 288.18745415 6.86943817 286.88347244 C4.82968817 284.82155301 2.78586756 282.76375129 0.74078369 280.7071228 C-5.06870814 274.86415509 -10.87385381 269.01692069 -16.66894531 263.15966797 C-20.22379038 259.56727409 -23.78582812 255.98215065 -27.3526535 252.40165329 C-28.70944099 251.03679734 -30.06344301 249.66916664 -31.41461945 248.29875565 C-33.29600518 246.39102637 -35.1863656 244.49265032 -37.07910156 242.59619141 C-37.63706421 242.02587189 -38.19502686 241.45555237 -38.76989746 240.86795044 C-41.79123872 237.65697418 -41.79123872 237.65697418 -46 237 C-47.83892426 238.69518807 -47.83892426 238.69518807 -49.5625 240.875 C-51.33094768 242.99713721 -53.04578517 245.04578517 -55 247 C-58.43859565 246.67932823 -60.13575347 245.2362477 -62.51812744 242.84263611 C-63.53607391 241.83087563 -63.53607391 241.83087563 -64.57458496 240.79867554 C-65.30826294 240.05421173 -66.04194092 239.30974792 -66.79785156 238.54272461 C-67.57872131 237.76229294 -68.35959106 236.98186127 -69.16412354 236.17778015 C-71.74679705 233.59301443 -74.31867867 230.99778008 -76.890625 228.40234375 C-78.6778736 226.60950077 -80.46578512 224.81731841 -82.2543335 223.02577209 C-86.48134618 218.78847018 -90.70160835 214.5445568 -94.91868377 210.29737335 C-99.7204955 205.46202585 -104.53083181 200.63519736 -109.34190416 195.80906665 C-119.2374526 185.88216322 -129.12224424 175.94460591 -139 166 C-135.04145382 161.25809265 -130.9163086 156.77503166 -126.53564453 152.42211914 C-125.92029343 151.80662201 -125.30494232 151.19112488 -124.67094421 150.55697632 C-122.6605979 148.54732002 -120.64674589 146.54121726 -118.6328125 144.53515625 C-117.22869339 143.13290456 -115.82479664 141.73043019 -114.42111206 140.32774353 C-110.74415621 136.65458732 -107.06420609 132.98444546 -103.38360596 129.31494141 C-99.62109763 125.56270233 -95.86145421 121.80759507 -92.1015625 118.05273438 C-84.73716251 110.69902664 -77.36959333 103.34850292 -70 96 C-71.69586126 92.36696916 -73.73800488 90.05450954 -76.625 87.25 C-77.44226563 86.45078125 -78.25953125 85.6515625 -79.1015625 84.828125 C-79.72804687 84.22484375 -80.35453125 83.6215625 -81 83 C-79.68692628 80.10147635 -78.27315362 78.01722783 -76.03125 75.765625 C-75.46019531 75.19199219 -74.88914062 74.61835938 -74.30078125 74.02734375 C-73.70652344 73.44082031 -73.11226563 72.85429687 -72.5 72.25 C-71.90574219 71.64800781 -71.31148438 71.04601562 -70.69921875 70.42578125 C-70.12816406 69.85730469 -69.55710937 69.28882813 -68.96875 68.703125 C-68.44732422 68.18395508 -67.92589844 67.66478516 -67.38867188 67.12988281 C-66 66 -66 66 -64 66 C-63.73832031 65.41089844 -63.47664063 64.82179688 -63.20703125 64.21484375 C-61.9357725 61.88214566 -60.59769469 60.39645632 -58.6875 58.5625 C-58.05972656 57.95277344 -57.43195313 57.34304687 -56.78515625 56.71484375 C-56.19605469 56.14894531 -55.60695313 55.58304688 -55 55 C-53.824375 53.824375 -53.824375 53.824375 -52.625 52.625 C-51.75875 51.75875 -50.8925 50.8925 -50 50 C-48.99646484 48.9790625 -48.99646484 48.9790625 -47.97265625 47.9375 C-43.71149179 43.62534725 -39.37003968 39.50686586 -34.77734375 35.55078125 C-31.38719374 32.59278223 -28.37879812 29.45455774 -25.5 26 C-21.870824 21.64498881 -17.89468275 17.89995297 -13.625 14.1875 C-9.90029266 10.91050372 -6.60474506 7.45527664 -3.41015625 3.6640625 C-2 2 -2 2 0 0 Z " fill="#63BA4B" transform="translate(238,105)"/>
  <path d="M0 0 C4.87020074 1.47885091 8.85551289 4.00444677 13.171875 6.6640625 C15.15019503 7.85817461 17.12939847 9.05082408 19.109375 10.2421875 C20.14320313 10.86673828 21.17703125 11.49128906 22.2421875 12.13476562 C27.51482437 15.29251805 32.84315155 18.35223009 38.171875 21.4140625 C39.24300537 22.03144287 40.31413574 22.64882324 41.41772461 23.28491211 C46.55768025 26.24666767 51.70178993 29.2009637 56.85336304 32.14245605 C59.24071802 33.50633908 61.62625582 34.87338186 64.01159668 36.24078369 C65.69245425 37.20257532 67.37598051 38.15969832 69.05957031 39.11669922 C70.08276367 39.70338379 71.10595703 40.29006836 72.16015625 40.89453125 C73.05774658 41.40653076 73.95533691 41.91853027 74.88012695 42.44604492 C77.5947475 44.14740878 80.04156168 45.89202041 82.421875 48.0390625 C83.0390625 51.07421875 83.0390625 51.07421875 82.421875 54.0390625 C80.4921875 55.84765625 80.4921875 55.84765625 77.546875 57.4765625 C76.98444092 57.7974585 76.42200684 58.11835449 75.8425293 58.44897461 C74.50509376 59.21035277 73.16200543 59.96184434 71.81494141 60.70605469 C69.08591179 62.22620381 66.38454693 63.78988432 63.68359375 65.359375 C57.52505837 68.93602073 51.35150387 72.48617302 45.17529297 76.03216553 C41.14205521 78.34824473 37.11030948 80.66690963 33.07983398 82.98779297 C30.86933727 84.26056675 28.65792708 85.5317555 26.44555664 86.80126953 C21.8130921 89.46701091 17.20029441 92.14715353 12.66796875 94.98046875 C11.97856201 95.40924316 11.28915527 95.83801758 10.57885742 96.27978516 C8.83638167 97.37332198 7.10506705 98.48459178 5.375 99.59765625 C2.07281749 101.20943581 0.04951307 101.50029077 -3.578125 101.0390625 C-6.24583026 98.37135724 -5.82840428 96.35956402 -5.86029053 92.73126221 C-5.85781311 91.845495 -5.85533569 90.95972778 -5.8527832 90.04711914 C-5.85789413 89.11530319 -5.86300507 88.18348724 -5.86827087 87.22343445 C-5.88221258 84.13196454 -5.88120666 81.04071643 -5.87890625 77.94921875 C-5.88279069 75.80691952 -5.88712484 73.66462106 -5.89189148 71.52232361 C-5.89936357 67.02730821 -5.89905528 62.53237133 -5.89379883 58.03735352 C-5.88800323 52.26890079 -5.90493274 46.50076905 -5.9281435 40.73236942 C-5.9428551 36.30665702 -5.94375605 31.88102236 -5.94063377 27.45528984 C-5.94114829 25.32816367 -5.94641038 23.2010333 -5.95644569 21.07393074 C-5.96874276 18.10254008 -5.96205886 15.13178048 -5.95043945 12.16040039 C-5.95808319 11.27665741 -5.96572693 10.39291443 -5.97360229 9.48239136 C-5.96658798 8.6733989 -5.95957367 7.86440643 -5.9523468 7.03089905 C-5.95251454 6.32832505 -5.95268229 5.62575106 -5.95285511 4.90188694 C-5.24574456 1.38676293 -3.49680608 0.05298191 0 0 Z " fill="#E2F6D5" transform="translate(229.578125,205.9609375)"/>
</svg>
